<mxfile host="app.diagrams.net" modified="2023-09-05T13:31:46.237Z" agent="Mozilla/5.0 (Macintosh; Intel Mac OS X 10_15_7) AppleWebKit/605.1.15 (KHTML, like Gecko) Version/17.0 Safari/605.1.15" etag="y0RrQXbQYBjNRaPpxUPT" version="21.7.2" type="google">
  <diagram name="Page-1" id="0rZ89uR0rX7DoywEYTZd">
    <mxGraphModel grid="1" page="1" gridSize="10" guides="1" tooltips="1" connect="1" arrows="1" fold="1" pageScale="1" pageWidth="827" pageHeight="1169" math="0" shadow="0">
      <root>
        <mxCell id="0" />
        <mxCell id="1" parent="0" />
        <mxCell id="4ggGI877EelNgK9-5oSK-31" style="edgeStyle=none;shape=connector;rounded=0;orthogonalLoop=1;jettySize=auto;html=1;entryX=0;entryY=0.5;entryDx=0;entryDy=0;labelBackgroundColor=default;strokeColor=default;fontFamily=Helvetica;fontSize=11;fontColor=default;endArrow=classic;exitX=0.5;exitY=0;exitDx=0;exitDy=0;" edge="1" parent="1" source="4ggGI877EelNgK9-5oSK-1" target="4ggGI877EelNgK9-5oSK-2">
          <mxGeometry relative="1" as="geometry" />
        </mxCell>
        <mxCell id="4ggGI877EelNgK9-5oSK-32" style="edgeStyle=none;shape=connector;rounded=0;orthogonalLoop=1;jettySize=auto;html=1;entryX=0;entryY=0.5;entryDx=0;entryDy=0;labelBackgroundColor=default;strokeColor=default;fontFamily=Helvetica;fontSize=11;fontColor=default;endArrow=classic;exitX=1;exitY=0;exitDx=0;exitDy=0;" edge="1" parent="1" source="4ggGI877EelNgK9-5oSK-1" target="4ggGI877EelNgK9-5oSK-3">
          <mxGeometry relative="1" as="geometry">
            <mxPoint x="190" y="300" as="sourcePoint" />
          </mxGeometry>
        </mxCell>
        <mxCell id="4ggGI877EelNgK9-5oSK-33" style="edgeStyle=none;shape=connector;rounded=0;orthogonalLoop=1;jettySize=auto;html=1;entryX=0;entryY=0.5;entryDx=0;entryDy=0;labelBackgroundColor=default;strokeColor=default;fontFamily=Helvetica;fontSize=11;fontColor=default;endArrow=classic;exitX=1;exitY=1;exitDx=0;exitDy=0;" edge="1" parent="1" source="4ggGI877EelNgK9-5oSK-1" target="4ggGI877EelNgK9-5oSK-4">
          <mxGeometry relative="1" as="geometry" />
        </mxCell>
        <mxCell id="4ggGI877EelNgK9-5oSK-34" style="edgeStyle=none;shape=connector;rounded=0;orthogonalLoop=1;jettySize=auto;html=1;entryX=0.025;entryY=0.633;entryDx=0;entryDy=0;entryPerimeter=0;labelBackgroundColor=default;strokeColor=default;fontFamily=Helvetica;fontSize=11;fontColor=default;endArrow=classic;exitX=0.5;exitY=1;exitDx=0;exitDy=0;" edge="1" parent="1" source="4ggGI877EelNgK9-5oSK-1" target="4ggGI877EelNgK9-5oSK-21">
          <mxGeometry relative="1" as="geometry" />
        </mxCell>
        <mxCell id="4ggGI877EelNgK9-5oSK-1" value="process" style="rounded=0;whiteSpace=wrap;html=1;strokeWidth=1;fontSize=20;" vertex="1" parent="1">
          <mxGeometry x="40" y="343" width="120" height="60" as="geometry" />
        </mxCell>
        <mxCell id="4ggGI877EelNgK9-5oSK-9" style="edgeStyle=orthogonalEdgeStyle;rounded=0;orthogonalLoop=1;jettySize=auto;html=1;" edge="1" parent="1" source="4ggGI877EelNgK9-5oSK-2">
          <mxGeometry relative="1" as="geometry">
            <mxPoint x="410" y="130" as="targetPoint" />
          </mxGeometry>
        </mxCell>
        <mxCell id="4ggGI877EelNgK9-5oSK-2" value="map&lt;br&gt;process_file" style="rounded=0;whiteSpace=wrap;html=1;strokeWidth=1;fontSize=20;" vertex="1" parent="1">
          <mxGeometry x="240" y="100" width="120" height="60" as="geometry" />
        </mxCell>
        <mxCell id="4ggGI877EelNgK9-5oSK-13" style="edgeStyle=orthogonalEdgeStyle;rounded=0;orthogonalLoop=1;jettySize=auto;html=1;entryX=0;entryY=0.5;entryDx=0;entryDy=0;" edge="1" parent="1" source="4ggGI877EelNgK9-5oSK-3" target="4ggGI877EelNgK9-5oSK-11">
          <mxGeometry relative="1" as="geometry" />
        </mxCell>
        <mxCell id="4ggGI877EelNgK9-5oSK-3" value="map&lt;br&gt;process_file" style="rounded=0;whiteSpace=wrap;html=1;strokeWidth=1;fontSize=20;" vertex="1" parent="1">
          <mxGeometry x="240" y="220" width="120" height="60" as="geometry" />
        </mxCell>
        <mxCell id="4ggGI877EelNgK9-5oSK-14" style="edgeStyle=orthogonalEdgeStyle;rounded=0;orthogonalLoop=1;jettySize=auto;html=1;entryX=0;entryY=0.5;entryDx=0;entryDy=0;" edge="1" parent="1" source="4ggGI877EelNgK9-5oSK-4" target="4ggGI877EelNgK9-5oSK-12">
          <mxGeometry relative="1" as="geometry" />
        </mxCell>
        <mxCell id="4ggGI877EelNgK9-5oSK-4" value="map&lt;br&gt;process_file" style="rounded=0;whiteSpace=wrap;html=1;strokeWidth=1;fontSize=20;" vertex="1" parent="1">
          <mxGeometry x="240" y="430" width="120" height="60" as="geometry" />
        </mxCell>
        <mxCell id="4ggGI877EelNgK9-5oSK-5" value="file 1" style="text;html=1;align=center;verticalAlign=middle;resizable=0;points=[];autosize=1;strokeColor=none;fillColor=none;" vertex="1" parent="1">
          <mxGeometry x="275" y="160" width="50" height="30" as="geometry" />
        </mxCell>
        <mxCell id="4ggGI877EelNgK9-5oSK-6" value="file 2" style="text;html=1;align=center;verticalAlign=middle;resizable=0;points=[];autosize=1;strokeColor=none;fillColor=none;" vertex="1" parent="1">
          <mxGeometry x="275" y="280" width="50" height="30" as="geometry" />
        </mxCell>
        <mxCell id="4ggGI877EelNgK9-5oSK-7" value="file 9" style="text;html=1;align=center;verticalAlign=middle;resizable=0;points=[];autosize=1;strokeColor=none;fillColor=none;" vertex="1" parent="1">
          <mxGeometry x="275" y="490" width="50" height="30" as="geometry" />
        </mxCell>
        <mxCell id="4ggGI877EelNgK9-5oSK-8" value=".&lt;br&gt;.&lt;br&gt;." style="text;html=1;align=center;verticalAlign=middle;resizable=0;points=[];autosize=1;strokeColor=none;fillColor=none;" vertex="1" parent="1">
          <mxGeometry x="285" y="343" width="30" height="60" as="geometry" />
        </mxCell>
        <mxCell id="4ggGI877EelNgK9-5oSK-16" style="edgeStyle=orthogonalEdgeStyle;rounded=0;orthogonalLoop=1;jettySize=auto;html=1;entryX=0;entryY=0.5;entryDx=0;entryDy=0;" edge="1" parent="1" source="4ggGI877EelNgK9-5oSK-10" target="4ggGI877EelNgK9-5oSK-15">
          <mxGeometry relative="1" as="geometry">
            <mxPoint x="590" y="130" as="targetPoint" />
          </mxGeometry>
        </mxCell>
        <mxCell id="4ggGI877EelNgK9-5oSK-10" value="HashMap1" style="rounded=0;whiteSpace=wrap;html=1;strokeWidth=1;fontSize=20;" vertex="1" parent="1">
          <mxGeometry x="414" y="100" width="120" height="60" as="geometry" />
        </mxCell>
        <mxCell id="4ggGI877EelNgK9-5oSK-30" style="edgeStyle=none;shape=connector;rounded=0;orthogonalLoop=1;jettySize=auto;html=1;entryX=-0.002;entryY=0.544;entryDx=0;entryDy=0;entryPerimeter=0;labelBackgroundColor=default;strokeColor=default;fontFamily=Helvetica;fontSize=11;fontColor=default;endArrow=classic;exitX=1;exitY=0.5;exitDx=0;exitDy=0;" edge="1" parent="1" source="4ggGI877EelNgK9-5oSK-11" target="4ggGI877EelNgK9-5oSK-15">
          <mxGeometry relative="1" as="geometry" />
        </mxCell>
        <mxCell id="4ggGI877EelNgK9-5oSK-11" value="HashMap2" style="rounded=0;whiteSpace=wrap;html=1;strokeWidth=1;fontSize=20;" vertex="1" parent="1">
          <mxGeometry x="414" y="220" width="120" height="60" as="geometry" />
        </mxCell>
        <mxCell id="4ggGI877EelNgK9-5oSK-25" style="edgeStyle=none;shape=connector;rounded=0;orthogonalLoop=1;jettySize=auto;html=1;entryX=0;entryY=0.5;entryDx=0;entryDy=0;labelBackgroundColor=default;strokeColor=default;fontFamily=Helvetica;fontSize=11;fontColor=default;endArrow=classic;" edge="1" parent="1" source="4ggGI877EelNgK9-5oSK-12" target="4ggGI877EelNgK9-5oSK-24">
          <mxGeometry relative="1" as="geometry" />
        </mxCell>
        <mxCell id="4ggGI877EelNgK9-5oSK-12" value="HashMap9" style="rounded=0;whiteSpace=wrap;html=1;strokeWidth=1;fontSize=20;" vertex="1" parent="1">
          <mxGeometry x="414" y="430" width="120" height="60" as="geometry" />
        </mxCell>
        <mxCell id="4ggGI877EelNgK9-5oSK-28" style="edgeStyle=none;shape=connector;rounded=0;orthogonalLoop=1;jettySize=auto;html=1;entryX=0;entryY=0.5;entryDx=0;entryDy=0;labelBackgroundColor=default;strokeColor=default;fontFamily=Helvetica;fontSize=11;fontColor=default;endArrow=classic;" edge="1" parent="1" source="4ggGI877EelNgK9-5oSK-15" target="4ggGI877EelNgK9-5oSK-27">
          <mxGeometry relative="1" as="geometry" />
        </mxCell>
        <mxCell id="4ggGI877EelNgK9-5oSK-15" value="reduce" style="rounded=0;whiteSpace=wrap;html=1;strokeWidth=1;fontSize=20;" vertex="1" parent="1">
          <mxGeometry x="620" y="100" width="120" height="60" as="geometry" />
        </mxCell>
        <mxCell id="4ggGI877EelNgK9-5oSK-20" style="edgeStyle=orthogonalEdgeStyle;rounded=0;orthogonalLoop=1;jettySize=auto;html=1;entryX=0;entryY=0.5;entryDx=0;entryDy=0;" edge="1" parent="1" source="4ggGI877EelNgK9-5oSK-21" target="4ggGI877EelNgK9-5oSK-23">
          <mxGeometry relative="1" as="geometry" />
        </mxCell>
        <mxCell id="4ggGI877EelNgK9-5oSK-21" value="map&lt;br&gt;process_file" style="rounded=0;whiteSpace=wrap;html=1;strokeWidth=1;fontSize=20;" vertex="1" parent="1">
          <mxGeometry x="240" y="560" width="120" height="60" as="geometry" />
        </mxCell>
        <mxCell id="4ggGI877EelNgK9-5oSK-22" value="file 10" style="text;html=1;align=center;verticalAlign=middle;resizable=0;points=[];autosize=1;strokeColor=none;fillColor=none;" vertex="1" parent="1">
          <mxGeometry x="270" y="620" width="60" height="30" as="geometry" />
        </mxCell>
        <mxCell id="4ggGI877EelNgK9-5oSK-26" style="edgeStyle=none;shape=connector;rounded=0;orthogonalLoop=1;jettySize=auto;html=1;entryX=0;entryY=0.5;entryDx=0;entryDy=0;labelBackgroundColor=default;strokeColor=default;fontFamily=Helvetica;fontSize=11;fontColor=default;endArrow=classic;exitX=1;exitY=0.5;exitDx=0;exitDy=0;" edge="1" parent="1" source="4ggGI877EelNgK9-5oSK-23" target="4ggGI877EelNgK9-5oSK-24">
          <mxGeometry relative="1" as="geometry" />
        </mxCell>
        <mxCell id="4ggGI877EelNgK9-5oSK-23" value="HashMap10" style="rounded=0;whiteSpace=wrap;html=1;strokeWidth=1;fontSize=20;" vertex="1" parent="1">
          <mxGeometry x="414" y="560" width="120" height="60" as="geometry" />
        </mxCell>
        <mxCell id="4ggGI877EelNgK9-5oSK-29" style="edgeStyle=none;shape=connector;rounded=0;orthogonalLoop=1;jettySize=auto;html=1;entryX=0;entryY=0.5;entryDx=0;entryDy=0;labelBackgroundColor=default;strokeColor=default;fontFamily=Helvetica;fontSize=11;fontColor=default;endArrow=classic;exitX=1;exitY=0.5;exitDx=0;exitDy=0;" edge="1" parent="1" source="4ggGI877EelNgK9-5oSK-24" target="4ggGI877EelNgK9-5oSK-27">
          <mxGeometry relative="1" as="geometry" />
        </mxCell>
        <mxCell id="4ggGI877EelNgK9-5oSK-24" value="reduce" style="rounded=0;whiteSpace=wrap;html=1;strokeWidth=1;fontSize=20;" vertex="1" parent="1">
          <mxGeometry x="620" y="430" width="120" height="60" as="geometry" />
        </mxCell>
        <mxCell id="4ggGI877EelNgK9-5oSK-27" value="reduce" style="rounded=0;whiteSpace=wrap;html=1;strokeWidth=1;fontSize=20;" vertex="1" parent="1">
          <mxGeometry x="827" y="100" width="120" height="60" as="geometry" />
        </mxCell>
        <mxCell id="4ggGI877EelNgK9-5oSK-36" value=".&lt;br&gt;.&lt;br&gt;." style="text;html=1;align=center;verticalAlign=middle;resizable=0;points=[];autosize=1;strokeColor=none;fillColor=none;" vertex="1" parent="1">
          <mxGeometry x="459" y="343" width="30" height="60" as="geometry" />
        </mxCell>
        <mxCell id="4ggGI877EelNgK9-5oSK-37" value=".&lt;br&gt;.&lt;br&gt;." style="text;html=1;align=center;verticalAlign=middle;resizable=0;points=[];autosize=1;strokeColor=none;fillColor=none;" vertex="1" parent="1">
          <mxGeometry x="665" y="265" width="30" height="60" as="geometry" />
        </mxCell>
        <mxCell id="mNbctfQ3bmDSschp0P_w-3" value="&lt;p style=&quot;font-size: 20px;&quot;&gt;&lt;font style=&quot;font-size: 20px;&quot; face=&quot;Courier New&quot;&gt;Sea &lt;i&gt;t&lt;/i&gt; el tiempo de ejecución serial de un archivo de 35.000 líneas en un CPU.&lt;br style=&quot;font-size: 20px;&quot;&gt;&lt;/font&gt;&lt;font style=&quot;font-size: 20px;&quot; face=&quot;Courier New&quot;&gt;&lt;br&gt;&lt;/font&gt;&lt;/p&gt;&lt;p style=&quot;font-size: 20px;&quot;&gt;&lt;font style=&quot;font-size: 20px;&quot; face=&quot;Courier New&quot;&gt;Sea &lt;i&gt;P&lt;/i&gt; el tiempo total de ejecución en paralelo de 4 archivos de 35.000 líneas.&lt;br style=&quot;font-size: 20px;&quot;&gt;&lt;/font&gt;&lt;font style=&quot;font-size: 20px;&quot; face=&quot;Courier New&quot;&gt;&lt;br&gt;&lt;/font&gt;&lt;/p&gt;&lt;p style=&quot;font-size: 20px;&quot;&gt;&lt;font style=&quot;font-size: 20px;&quot; face=&quot;Courier New&quot;&gt;Siendo que la ejecución en paralelo de &lt;i&gt;n&lt;/i&gt; archivos (cada uno residente en un CPU distinto) con el mismo tamaño como máximo se ejecuta en el mismo tiempo que cualquiera de ellos, el tiempo máximo de ejecución de &lt;i&gt;P&lt;/i&gt; es equivalente a &lt;i&gt;t&lt;/i&gt;.&lt;br style=&quot;font-size: 20px;&quot;&gt;&lt;/font&gt;&lt;font style=&quot;font-size: 20px;&quot; face=&quot;Courier New&quot;&gt;&lt;br&gt;&lt;/font&gt;&lt;/p&gt;&lt;p style=&quot;font-size: 20px;&quot;&gt;&lt;font style=&quot;font-size: 20px;&quot; face=&quot;Courier New&quot;&gt;Para 10 archivos de 35.000 líneas, el tiempo total de ejecución resultará UPPER(10/4) * &lt;i&gt;P&lt;/i&gt; = 3 * &lt;i&gt;P&lt;/i&gt;.&lt;/font&gt;&lt;span style=&quot;font-family: &amp;quot;Courier New&amp;quot;;&quot;&gt;&amp;nbsp;Finalmente, el mínimo tiempo posible ideal de ejecución es equivalente a 3 * &lt;i&gt;t&lt;/i&gt;.&lt;/span&gt;&lt;/p&gt;" style="rounded=1;whiteSpace=wrap;html=1;fontSize=20;fontStyle=0" vertex="1" parent="1">
          <mxGeometry x="24" y="670" width="926" height="480" as="geometry" />
        </mxCell>
      </root>
    </mxGraphModel>
  </diagram>
</mxfile>
